<svg width="32" height="10" viewBox="0 0 32 10" fill="none" xmlns="http://www.w3.org/2000/svg">
<path d="M6.66016 1.83301C6.66016 1.9209 6.64551 2.02669 6.61621 2.15039C6.59017 2.27409 6.55111 2.40267 6.49902 2.53613C6.44694 2.6696 6.38346 2.80306 6.30859 2.93652C6.23698 3.06673 6.15397 3.18555 6.05957 3.29297C5.96517 3.39714 5.86263 3.48177 5.75195 3.54688C5.64128 3.61198 5.52246 3.64453 5.39551 3.64453C5.36621 3.64453 5.32715 3.6429 5.27832 3.63965C5.23275 3.63314 5.18555 3.62174 5.13672 3.60547C5.09115 3.58594 5.05046 3.55827 5.01465 3.52246C4.9821 3.48665 4.96582 3.43945 4.96582 3.38086C4.96582 3.3418 4.97559 3.29622 4.99512 3.24414C5.0179 3.19206 5.05697 3.13184 5.1123 3.06348C5.1709 2.99837 5.23438 2.92188 5.30273 2.83398C5.37109 2.74284 5.43294 2.64844 5.48828 2.55078C5.54362 2.45312 5.58919 2.3571 5.625 2.2627C5.66406 2.16829 5.68359 2.08366 5.68359 2.00879C5.68359 1.91439 5.66081 1.83952 5.61523 1.78418C5.57292 1.72559 5.49805 1.69629 5.39062 1.69629C5.25065 1.69629 5.09277 1.74186 4.91699 1.83301C4.74121 1.92415 4.55729 2.04948 4.36523 2.20898C4.17318 2.36849 3.97786 2.55566 3.7793 2.77051C3.58073 2.9821 3.38867 3.20996 3.20312 3.4541C3.01758 3.69499 2.8418 3.94727 2.67578 4.21094C2.51302 4.47135 2.36979 4.73014 2.24609 4.9873C2.12565 5.24121 2.02962 5.48698 1.95801 5.72461C1.88965 5.95898 1.85547 6.1722 1.85547 6.36426C1.85547 6.60189 1.91895 6.79232 2.0459 6.93555C2.17285 7.07878 2.38281 7.15039 2.67578 7.15039C2.8125 7.15039 3.01595 7.09831 3.28613 6.99414C3.55632 6.88672 3.78092 6.78092 3.95996 6.67676C4.14225 6.56934 4.32454 6.45215 4.50684 6.3252C4.69238 6.19499 4.86816 6.07129 5.03418 5.9541C5.2002 5.83366 5.35156 5.72624 5.48828 5.63184C5.625 5.53418 5.7373 5.46582 5.8252 5.42676C5.84147 5.41374 5.861 5.40723 5.88379 5.40723C5.93262 5.40723 5.96517 5.44792 5.98145 5.5293C6.00098 5.60742 6.01074 5.69694 6.01074 5.79785C6.01074 5.85319 6.0026 5.92155 5.98633 6.00293C5.97331 6.08105 5.92773 6.1722 5.84961 6.27637C5.8138 6.31868 5.74707 6.3903 5.64941 6.49121C5.55176 6.59212 5.42969 6.70605 5.2832 6.83301C5.13672 6.95996 4.96908 7.0918 4.78027 7.22852C4.59147 7.36523 4.38639 7.49056 4.16504 7.60449C3.94694 7.71842 3.66374 7.83073 3.31543 7.94141C2.97038 8.05208 2.66927 8.10742 2.41211 8.10742C2.10938 8.10742 1.85059 8.07161 1.63574 8C1.4209 7.92513 1.24512 7.82259 1.1084 7.69238C0.97168 7.56217 0.870768 7.40755 0.805664 7.22852C0.743815 7.04622 0.712891 6.84766 0.712891 6.63281C0.712891 6.36589 0.753581 6.07943 0.834961 5.77344C0.916341 5.46745 1.02865 5.15658 1.17188 4.84082C1.31836 4.52507 1.49089 4.20931 1.68945 3.89355C1.89128 3.5778 2.111 3.27669 2.34863 2.99023C2.58952 2.70052 2.84505 2.43197 3.11523 2.18457C3.38542 1.93717 3.66211 1.72233 3.94531 1.54004C4.22852 1.35775 4.51335 1.21452 4.7998 1.11035C5.08626 1.00618 5.36784 0.954102 5.64453 0.954102C5.78125 0.954102 5.91146 0.970378 6.03516 1.00293C6.15885 1.03223 6.26628 1.08105 6.35742 1.14941C6.45182 1.21777 6.52507 1.30892 6.57715 1.42285C6.63249 1.53353 6.66016 1.67025 6.66016 1.83301Z" fill="black"/>
<path d="M6.76758 3.77637C6.76758 3.7015 6.7806 3.625 6.80664 3.54688C6.83594 3.46549 6.87826 3.39225 6.93359 3.32715C6.98893 3.26204 7.05729 3.20833 7.13867 3.16602C7.22331 3.1237 7.32259 3.10254 7.43652 3.10254C7.62533 3.10254 7.75716 3.13997 7.83203 3.21484C7.9069 3.28646 7.94434 3.3776 7.94434 3.48828C7.94434 3.55013 7.93132 3.61849 7.90527 3.69336C7.88249 3.76823 7.84668 3.83822 7.79785 3.90332C7.74902 3.96517 7.68555 4.01725 7.60742 4.05957C7.5293 4.10189 7.43652 4.12305 7.3291 4.12305C7.12728 4.12305 6.98568 4.09212 6.9043 4.03027C6.82292 3.96517 6.77734 3.88053 6.76758 3.77637ZM6.23047 4.875C6.28581 4.78385 6.34928 4.71875 6.4209 4.67969C6.49251 4.64062 6.56576 4.62109 6.64062 4.62109C6.76432 4.62109 6.87012 4.66178 6.95801 4.74316C7.04915 4.82129 7.09473 4.9222 7.09473 5.0459C7.09147 5.0752 7.08659 5.10449 7.08008 5.13379C7.07682 5.16309 7.06706 5.19238 7.05078 5.22168C7.00521 5.30632 6.96777 5.37793 6.93848 5.43652C6.90918 5.49512 6.88151 5.55046 6.85547 5.60254C6.83268 5.65137 6.8099 5.7002 6.78711 5.74902C6.76432 5.79785 6.73665 5.85645 6.7041 5.9248C6.66504 6.00618 6.62109 6.0957 6.57227 6.19336C6.52344 6.28776 6.47624 6.38542 6.43066 6.48633C6.38835 6.58724 6.35091 6.68652 6.31836 6.78418C6.28906 6.88184 6.27441 6.97135 6.27441 7.05273C6.27441 7.14062 6.29557 7.19922 6.33789 7.22852C6.38346 7.25456 6.44694 7.26758 6.52832 7.26758C6.61947 7.26758 6.71387 7.24805 6.81152 7.20898C6.91243 7.16992 7.01335 7.11947 7.11426 7.05762C7.21517 6.99577 7.31445 6.92578 7.41211 6.84766C7.50977 6.76628 7.60091 6.6849 7.68555 6.60352C7.77344 6.52214 7.85319 6.44401 7.9248 6.36914C7.99967 6.29427 8.06152 6.22754 8.11035 6.16895C8.17546 6.1071 8.24056 6.07617 8.30566 6.07617C8.36426 6.07617 8.41146 6.10221 8.44727 6.1543C8.48633 6.20638 8.50586 6.27311 8.50586 6.35449C8.50586 6.42936 8.48633 6.50911 8.44727 6.59375C8.41146 6.67839 8.35124 6.75814 8.2666 6.83301C8.10059 7.00228 7.93132 7.16504 7.75879 7.32129C7.58626 7.47428 7.40885 7.611 7.22656 7.73145C7.04753 7.84863 6.86686 7.94303 6.68457 8.01465C6.50228 8.08626 6.31836 8.12207 6.13281 8.12207C5.86914 8.12207 5.66081 8.05534 5.50781 7.92188C5.35807 7.78516 5.2832 7.57357 5.2832 7.28711C5.2832 7.13737 5.30436 6.99089 5.34668 6.84766C5.389 6.70443 5.43945 6.56608 5.49805 6.43262C5.55664 6.2959 5.61849 6.16569 5.68359 6.04199C5.7487 5.91504 5.80404 5.7946 5.84961 5.68066C5.86589 5.63835 5.89355 5.57324 5.93262 5.48535C5.97493 5.39746 6.01888 5.30794 6.06445 5.2168C6.11654 5.10938 6.17188 4.99544 6.23047 4.875Z" fill="black"/>
<path d="M9.48242 7.83398C9.48242 7.67773 9.5166 7.51823 9.58496 7.35547C9.65658 7.19271 9.74609 7.02507 9.85352 6.85254C9.96094 6.68001 10.0781 6.50586 10.2051 6.33008C10.332 6.15104 10.4525 5.96875 10.5664 5.7832C10.599 5.73112 10.625 5.68229 10.6445 5.63672C10.6641 5.58789 10.6738 5.53906 10.6738 5.49023C10.6738 5.43815 10.6592 5.39583 10.6299 5.36328C10.6006 5.32747 10.5583 5.30957 10.5029 5.30957C10.3695 5.30957 10.2409 5.33887 10.1172 5.39746C9.99349 5.4528 9.87467 5.52767 9.76074 5.62207C9.64681 5.71322 9.53776 5.81901 9.43359 5.93945C9.33268 6.0599 9.23665 6.18522 9.14551 6.31543C9.05762 6.44238 8.97461 6.56934 8.89648 6.69629C8.81836 6.82324 8.74674 6.9388 8.68164 7.04297C8.62305 7.15039 8.56934 7.26758 8.52051 7.39453C8.47168 7.52148 8.41797 7.63867 8.35938 7.74609C8.30404 7.85352 8.24056 7.94303 8.16895 8.01465C8.09733 8.08952 8.00781 8.12695 7.90039 8.12695C7.7832 8.12695 7.69043 8.08952 7.62207 8.01465C7.55371 7.93978 7.51953 7.85026 7.51953 7.74609C7.51953 7.6875 7.54069 7.59635 7.58301 7.47266C7.62533 7.34896 7.67904 7.20573 7.74414 7.04297C7.8125 6.87695 7.889 6.70117 7.97363 6.51562C8.05827 6.33008 8.14128 6.14616 8.22266 5.96387C8.30729 5.78158 8.38542 5.61068 8.45703 5.45117C8.5319 5.28841 8.59375 5.15007 8.64258 5.03613C8.70117 4.89616 8.77767 4.79199 8.87207 4.72363C8.96973 4.65527 9.06576 4.62109 9.16016 4.62109C9.24154 4.62109 9.31315 4.65202 9.375 4.71387C9.4401 4.77246 9.47266 4.85872 9.47266 4.97266C9.47266 5.05729 9.45312 5.15007 9.41406 5.25098C9.50195 5.1696 9.59635 5.08171 9.69727 4.9873C9.79818 4.8929 9.90723 4.80664 10.0244 4.72852C10.1449 4.64714 10.2783 4.5804 10.4248 4.52832C10.5713 4.47624 10.7357 4.4502 10.918 4.4502C11.0091 4.4502 11.0954 4.46159 11.1768 4.48438C11.2581 4.50716 11.3298 4.54297 11.3916 4.5918C11.4567 4.64062 11.5088 4.7041 11.5479 4.78223C11.5902 4.86035 11.6146 4.95475 11.6211 5.06543C11.696 4.99056 11.7773 4.91732 11.8652 4.8457C11.9531 4.77083 12.0475 4.7041 12.1484 4.64551C12.2526 4.58691 12.3649 4.53971 12.4854 4.50391C12.6058 4.4681 12.7393 4.4502 12.8857 4.4502C12.9932 4.4502 13.0957 4.46159 13.1934 4.48438C13.291 4.50716 13.3773 4.54622 13.4521 4.60156C13.5303 4.65365 13.5905 4.72201 13.6328 4.80664C13.6784 4.89128 13.7012 4.99544 13.7012 5.11914C13.7012 5.31445 13.6556 5.5 13.5645 5.67578C13.4766 5.85156 13.3724 6.0127 13.252 6.15918C13.2129 6.20801 13.1608 6.26986 13.0957 6.34473C13.0306 6.4196 12.9671 6.49935 12.9053 6.58398C12.8434 6.66862 12.7897 6.75651 12.7441 6.84766C12.6986 6.93555 12.6758 7.01855 12.6758 7.09668C12.6758 7.16829 12.6969 7.21387 12.7393 7.2334C12.7848 7.25293 12.8434 7.2627 12.915 7.2627C13.0518 7.2627 13.1999 7.22201 13.3594 7.14062C13.5189 7.05924 13.6735 6.96159 13.8232 6.84766C13.9762 6.73047 14.1178 6.61003 14.248 6.48633C14.3815 6.35938 14.4873 6.25358 14.5654 6.16895C14.585 6.14616 14.6077 6.12988 14.6338 6.12012C14.6598 6.11035 14.6859 6.10547 14.7119 6.10547C14.7705 6.10547 14.8226 6.13151 14.8682 6.18359C14.917 6.23568 14.9414 6.30404 14.9414 6.38867C14.9414 6.45378 14.9219 6.52539 14.8828 6.60352C14.8438 6.68164 14.777 6.75814 14.6826 6.83301C14.5068 7.00228 14.3262 7.16504 14.1406 7.32129C13.9583 7.47428 13.7728 7.611 13.584 7.73145C13.3984 7.84863 13.2113 7.94303 13.0225 8.01465C12.8369 8.08626 12.6514 8.12207 12.4658 8.12207C12.2249 8.12207 12.0296 8.0651 11.8799 7.95117C11.7334 7.83724 11.6602 7.65658 11.6602 7.40918C11.6602 7.24642 11.6911 7.09342 11.7529 6.9502C11.8148 6.80697 11.8913 6.67025 11.9824 6.54004C12.0736 6.40658 12.1696 6.27799 12.2705 6.1543C12.3714 6.0306 12.4593 5.9069 12.5342 5.7832C12.5667 5.73112 12.5928 5.68229 12.6123 5.63672C12.6318 5.58789 12.6416 5.53906 12.6416 5.49023C12.6416 5.43815 12.627 5.39583 12.5977 5.36328C12.5684 5.32747 12.526 5.30957 12.4707 5.30957C12.3372 5.30957 12.2087 5.33887 12.085 5.39746C11.9613 5.4528 11.8424 5.52767 11.7285 5.62207C11.6146 5.71322 11.5055 5.81901 11.4014 5.93945C11.3005 6.0599 11.2044 6.18522 11.1133 6.31543C11.0254 6.44238 10.9424 6.56934 10.8643 6.69629C10.7861 6.82324 10.7145 6.9388 10.6494 7.04297C10.5908 7.15039 10.5371 7.26758 10.4883 7.39453C10.4395 7.52148 10.3857 7.63867 10.3271 7.74609C10.2718 7.85352 10.2083 7.94303 10.1367 8.01465C10.0651 8.08952 9.97559 8.12695 9.86816 8.12695C9.8291 8.12695 9.78678 8.11882 9.74121 8.10254C9.69564 8.08952 9.65332 8.06999 9.61426 8.04395C9.57845 8.0179 9.54753 7.98698 9.52148 7.95117C9.4987 7.91536 9.48568 7.8763 9.48242 7.83398Z" fill="black"/>
<path d="M17.71 5.22656C17.5407 5.23307 17.3796 5.23796 17.2266 5.24121C17.0768 5.24447 16.9303 5.24772 16.7871 5.25098C16.6439 5.25098 16.5023 5.25098 16.3623 5.25098C16.2223 5.25098 16.0807 5.25098 15.9375 5.25098C15.8529 5.41699 15.7568 5.61068 15.6494 5.83203C15.5452 6.05013 15.4346 6.27962 15.3174 6.52051C15.2035 6.76139 15.0879 7.00553 14.9707 7.25293C14.8568 7.49707 14.7477 7.72982 14.6436 7.95117C14.5394 8.16927 14.445 8.36621 14.3604 8.54199C14.2757 8.72103 14.2074 8.86263 14.1553 8.9668C14.1195 9.04167 14.0755 9.11003 14.0234 9.17188C13.9714 9.23698 13.9144 9.29232 13.8525 9.33789C13.7907 9.38346 13.7272 9.41764 13.6621 9.44043C13.597 9.46647 13.5368 9.47949 13.4814 9.47949C13.4033 9.47949 13.3333 9.45996 13.2715 9.4209C13.2096 9.38184 13.1787 9.31999 13.1787 9.23535C13.1787 9.19303 13.1885 9.14258 13.208 9.08398C13.2275 9.02865 13.2552 8.96354 13.291 8.88867L15.0146 5.23633H14.7559C14.5768 5.23633 14.4548 5.20866 14.3896 5.15332C14.3245 5.09798 14.292 5.03288 14.292 4.95801C14.292 4.87988 14.3327 4.80501 14.4141 4.7334C14.4954 4.65853 14.6143 4.62109 14.7705 4.62109H15.3467C15.5778 4.1556 15.8089 3.77148 16.04 3.46875C16.2744 3.16602 16.5039 2.92676 16.7285 2.75098C16.9531 2.5752 17.1712 2.45312 17.3828 2.38477C17.5977 2.31641 17.8027 2.28223 17.998 2.28223C18.0892 2.28223 18.1755 2.30013 18.2568 2.33594C18.3415 2.37174 18.4147 2.42546 18.4766 2.49707C18.5417 2.56868 18.5938 2.65983 18.6328 2.77051C18.6719 2.87793 18.6914 3.00488 18.6914 3.15137C18.6914 3.29134 18.6719 3.44596 18.6328 3.61523C18.623 3.66081 18.6035 3.69987 18.5742 3.73242C18.5449 3.76172 18.5124 3.78613 18.4766 3.80566C18.4408 3.8252 18.4049 3.83984 18.3691 3.84961C18.3333 3.85612 18.3024 3.85938 18.2764 3.85938C18.2113 3.85938 18.151 3.84473 18.0957 3.81543C18.0404 3.78288 18.0127 3.73405 18.0127 3.66895C18.0127 3.62663 18.0143 3.58757 18.0176 3.55176C18.0241 3.51595 18.0273 3.48014 18.0273 3.44434C18.0273 3.30762 18.0013 3.20996 17.9492 3.15137C17.9004 3.09277 17.8337 3.06348 17.749 3.06348C17.6481 3.06348 17.5293 3.10742 17.3926 3.19531C17.2591 3.2832 17.1224 3.40039 16.9824 3.54688C16.8457 3.69336 16.7139 3.861 16.5869 4.0498C16.46 4.23535 16.3558 4.42578 16.2744 4.62109H17.4121C17.513 4.62109 17.6074 4.62272 17.6953 4.62598C17.7832 4.62923 17.8597 4.639 17.9248 4.65527C17.9932 4.67155 18.0452 4.69922 18.0811 4.73828C18.1201 4.77409 18.1396 4.8278 18.1396 4.89941C18.1396 4.93522 18.1331 4.97103 18.1201 5.00684C18.1071 5.04264 18.0843 5.07682 18.0518 5.10938C18.0225 5.13867 17.9801 5.16471 17.9248 5.1875C17.8695 5.20703 17.7979 5.22005 17.71 5.22656Z" fill="black"/>
<path d="M18.6816 5.30957C18.5286 5.30957 18.3805 5.34863 18.2373 5.42676C18.0973 5.50163 17.972 5.60254 17.8613 5.72949C17.7539 5.85319 17.6676 5.99479 17.6025 6.1543C17.5374 6.31055 17.5049 6.47168 17.5049 6.6377C17.5049 6.69954 17.5098 6.7679 17.5195 6.84277C17.5293 6.91439 17.5488 6.98275 17.5781 7.04785C17.6107 7.1097 17.6562 7.16178 17.7148 7.2041C17.7734 7.24642 17.8516 7.26758 17.9492 7.26758C18.099 7.26758 18.2438 7.22852 18.3838 7.15039C18.527 7.06901 18.654 6.96484 18.7646 6.83789C18.8753 6.70768 18.9632 6.5612 19.0283 6.39844C19.0934 6.23568 19.126 6.07129 19.126 5.90527C19.126 5.84017 19.1211 5.77344 19.1113 5.70508C19.1048 5.63346 19.0853 5.56836 19.0527 5.50977C19.0234 5.45117 18.9795 5.40397 18.9209 5.36816C18.8623 5.3291 18.7826 5.30957 18.6816 5.30957ZM18.9355 4.4502C19.0592 4.4502 19.1911 4.46647 19.3311 4.49902C19.4743 4.53158 19.6061 4.58691 19.7266 4.66504C19.847 4.74316 19.9463 4.84733 20.0244 4.97754C20.1058 5.10449 20.1465 5.26237 20.1465 5.45117C20.1465 5.54883 20.1335 5.66113 20.1074 5.78809C20.0814 5.91178 20.0423 6.04199 19.9902 6.17871C20.0228 6.21777 20.0602 6.24544 20.1025 6.26172C20.1449 6.27799 20.1904 6.28613 20.2393 6.28613C20.3076 6.28613 20.3825 6.2666 20.4639 6.22754C20.5485 6.18848 20.6348 6.13802 20.7227 6.07617C20.8105 6.01432 20.8984 5.94434 20.9863 5.86621C21.0742 5.78809 21.1572 5.70996 21.2354 5.63184C21.3135 5.55371 21.3835 5.48047 21.4453 5.41211C21.5104 5.34049 21.5641 5.28027 21.6064 5.23145C21.6292 5.20866 21.6569 5.19727 21.6895 5.19727C21.735 5.19727 21.7757 5.22168 21.8115 5.27051C21.8473 5.31608 21.8652 5.38118 21.8652 5.46582C21.8652 5.55046 21.8392 5.64811 21.7871 5.75879C21.7383 5.86947 21.6455 5.98503 21.5088 6.10547C21.4307 6.1901 21.3411 6.28776 21.2402 6.39844C21.1393 6.50911 21.0319 6.61328 20.918 6.71094C20.804 6.80859 20.6852 6.8916 20.5615 6.95996C20.4378 7.02832 20.3141 7.0625 20.1904 7.0625C20.1058 7.0625 20.0228 7.04948 19.9414 7.02344C19.8633 6.9974 19.7835 6.95508 19.7021 6.89648C19.585 7.07878 19.4515 7.24479 19.3018 7.39453C19.152 7.54427 18.9844 7.67285 18.7988 7.78027C18.6165 7.8877 18.418 7.9707 18.2031 8.0293C17.9915 8.09115 17.7653 8.12207 17.5244 8.12207C17.4333 8.12207 17.3275 8.10417 17.207 8.06836C17.0866 8.03255 16.971 7.97396 16.8604 7.89258C16.7529 7.80794 16.6618 7.69889 16.5869 7.56543C16.512 7.43197 16.4746 7.26921 16.4746 7.07715C16.4746 6.94694 16.4958 6.79069 16.5381 6.6084C16.5804 6.42611 16.6439 6.23893 16.7285 6.04688C16.8164 5.85156 16.9255 5.65951 17.0557 5.4707C17.1891 5.27865 17.347 5.10775 17.5293 4.95801C17.7116 4.80501 17.9199 4.68294 18.1543 4.5918C18.3887 4.4974 18.6491 4.4502 18.9355 4.4502Z" fill="black"/>
<path d="M23.9258 7.00879C23.9225 7.0153 23.9209 7.02344 23.9209 7.0332C23.9209 7.04297 23.9193 7.05111 23.916 7.05762C23.916 7.11621 23.9307 7.17806 23.96 7.24316C23.9893 7.30501 24.0365 7.33594 24.1016 7.33594C24.1276 7.33594 24.1471 7.33268 24.1602 7.32617C24.3457 7.27083 24.5329 7.18294 24.7217 7.0625C24.9137 6.94206 25.0977 6.81022 25.2734 6.66699C25.4492 6.52376 25.6104 6.37728 25.7568 6.22754C25.9066 6.0778 26.0303 5.94434 26.1279 5.82715C26.1735 5.77181 26.224 5.74414 26.2793 5.74414C26.3281 5.74414 26.3704 5.76693 26.4062 5.8125C26.4453 5.85807 26.4648 5.91992 26.4648 5.99805C26.4648 6.0599 26.4469 6.13314 26.4111 6.21777C26.3786 6.30241 26.3232 6.39355 26.2451 6.49121C26.0531 6.7028 25.8561 6.90625 25.6543 7.10156C25.4525 7.29688 25.249 7.47103 25.0439 7.62402C24.8389 7.77376 24.6338 7.89421 24.4287 7.98535C24.2269 8.0765 24.0283 8.12207 23.833 8.12207C23.5954 8.12207 23.4082 8.05534 23.2715 7.92188C23.1348 7.78516 23.0664 7.58171 23.0664 7.31152C23.0664 7.29525 23.0664 7.27897 23.0664 7.2627C23.0664 7.24316 23.068 7.22526 23.0713 7.20898C22.9964 7.3457 22.9004 7.47103 22.7832 7.58496C22.666 7.69564 22.5374 7.79167 22.3975 7.87305C22.2575 7.95117 22.1126 8.01139 21.9629 8.05371C21.8132 8.09928 21.6683 8.12207 21.5283 8.12207C21.4079 8.12207 21.2972 8.10579 21.1963 8.07324C21.0954 8.04069 21.0075 7.98861 20.9326 7.91699C20.861 7.84538 20.804 7.75423 20.7617 7.64355C20.7227 7.53288 20.7031 7.39941 20.7031 7.24316C20.7031 6.96973 20.7454 6.71094 20.8301 6.4668C20.9147 6.2194 21.027 5.99316 21.167 5.78809C21.307 5.57975 21.4665 5.39421 21.6455 5.23145C21.8278 5.06543 22.015 4.92546 22.207 4.81152C22.4023 4.69434 22.596 4.60482 22.7881 4.54297C22.9801 4.48112 23.1559 4.4502 23.3154 4.4502C23.501 4.4502 23.6605 4.48112 23.7939 4.54297C23.859 4.57552 23.9193 4.61947 23.9746 4.6748C23.9876 4.64551 24.0007 4.61784 24.0137 4.5918C24.0462 4.51367 24.0755 4.44694 24.1016 4.3916C24.1276 4.33301 24.1455 4.29069 24.1553 4.26465C24.165 4.23535 24.1927 4.16699 24.2383 4.05957C24.2839 3.95215 24.3359 3.82682 24.3945 3.68359C24.4564 3.53711 24.5215 3.38086 24.5898 3.21484C24.6615 3.04883 24.7266 2.89258 24.7852 2.74609C24.8438 2.59961 24.8942 2.47428 24.9365 2.37012C24.9788 2.2627 25.0049 2.19434 25.0146 2.16504C25.0374 2.08366 25.0684 2.00553 25.1074 1.93066C25.1465 1.85254 25.1921 1.78581 25.2441 1.73047C25.2995 1.67188 25.363 1.6263 25.4346 1.59375C25.5062 1.55794 25.5876 1.54004 25.6787 1.54004C25.8024 1.54004 25.9049 1.56771 25.9863 1.62305C26.0677 1.67513 26.1084 1.77767 26.1084 1.93066C26.1084 1.99251 26.1003 2.05599 26.084 2.12109C26.0677 2.1862 26.0482 2.24967 26.0254 2.31152C26.0059 2.37337 25.9831 2.43522 25.957 2.49707C25.9342 2.55566 25.9131 2.611 25.8936 2.66309C25.7308 2.98861 25.5599 3.34342 25.3809 3.72754C25.2018 4.1084 25.0244 4.49251 24.8486 4.87988C24.6729 5.26725 24.5052 5.64486 24.3457 6.0127C24.1862 6.38053 24.0462 6.71257 23.9258 7.00879ZM23.7793 5.09961C23.584 5.10612 23.3789 5.14844 23.1641 5.22656C22.9167 5.3112 22.6904 5.43815 22.4854 5.60742C22.2803 5.77344 22.1061 5.97852 21.9629 6.22266C21.8229 6.4668 21.7432 6.74674 21.7236 7.0625C21.7236 7.19271 21.779 7.25781 21.8896 7.25781C22.0264 7.25781 22.1566 7.23014 22.2803 7.1748C22.404 7.11621 22.5212 7.03971 22.6318 6.94531C22.7458 6.84766 22.8516 6.73698 22.9492 6.61328C23.0469 6.48958 23.1364 6.361 23.2178 6.22754C23.3024 6.09408 23.3773 5.96224 23.4424 5.83203C23.5107 5.69857 23.5693 5.57487 23.6182 5.46094C23.6344 5.42513 23.6572 5.37467 23.6865 5.30957C23.7126 5.24772 23.7435 5.17773 23.7793 5.09961Z" fill="black"/>
<path d="M28.6523 7.00879C28.6491 7.0153 28.6475 7.02344 28.6475 7.0332C28.6475 7.04297 28.6458 7.05111 28.6426 7.05762C28.6426 7.11621 28.6572 7.17806 28.6865 7.24316C28.7158 7.30501 28.763 7.33594 28.8281 7.33594C28.8542 7.33594 28.8737 7.33268 28.8867 7.32617C29.0723 7.27083 29.2594 7.18294 29.4482 7.0625C29.6403 6.94206 29.8242 6.81022 30 6.66699C30.1758 6.52376 30.3369 6.37728 30.4834 6.22754C30.6331 6.0778 30.7568 5.94434 30.8545 5.82715C30.9001 5.77181 30.9505 5.74414 31.0059 5.74414C31.0547 5.74414 31.097 5.76693 31.1328 5.8125C31.1719 5.85807 31.1914 5.91992 31.1914 5.99805C31.1914 6.0599 31.1735 6.13314 31.1377 6.21777C31.1051 6.30241 31.0498 6.39355 30.9717 6.49121C30.7796 6.7028 30.5827 6.90625 30.3809 7.10156C30.179 7.29688 29.9756 7.47103 29.7705 7.62402C29.5654 7.77376 29.3604 7.89421 29.1553 7.98535C28.9535 8.0765 28.7549 8.12207 28.5596 8.12207C28.3219 8.12207 28.1348 8.05534 27.998 7.92188C27.8613 7.78516 27.793 7.58171 27.793 7.31152C27.793 7.29525 27.793 7.27897 27.793 7.2627C27.793 7.24316 27.7946 7.22526 27.7979 7.20898C27.723 7.3457 27.627 7.47103 27.5098 7.58496C27.3926 7.69564 27.264 7.79167 27.124 7.87305C26.984 7.95117 26.8392 8.01139 26.6895 8.05371C26.5397 8.09928 26.3949 8.12207 26.2549 8.12207C26.1344 8.12207 26.0238 8.10579 25.9229 8.07324C25.8219 8.04069 25.734 7.98861 25.6592 7.91699C25.5876 7.84538 25.5306 7.75423 25.4883 7.64355C25.4492 7.53288 25.4297 7.39941 25.4297 7.24316C25.4297 6.96973 25.472 6.71094 25.5566 6.4668C25.6413 6.2194 25.7536 5.99316 25.8936 5.78809C26.0335 5.57975 26.193 5.39421 26.3721 5.23145C26.5544 5.06543 26.7415 4.92546 26.9336 4.81152C27.1289 4.69434 27.3226 4.60482 27.5146 4.54297C27.7067 4.48112 27.8825 4.4502 28.042 4.4502C28.2275 4.4502 28.387 4.48112 28.5205 4.54297C28.5856 4.57552 28.6458 4.61947 28.7012 4.6748C28.7142 4.64551 28.7272 4.61784 28.7402 4.5918C28.7728 4.51367 28.8021 4.44694 28.8281 4.3916C28.8542 4.33301 28.8721 4.29069 28.8818 4.26465C28.8916 4.23535 28.9193 4.16699 28.9648 4.05957C29.0104 3.95215 29.0625 3.82682 29.1211 3.68359C29.1829 3.53711 29.248 3.38086 29.3164 3.21484C29.388 3.04883 29.4531 2.89258 29.5117 2.74609C29.5703 2.59961 29.6208 2.47428 29.6631 2.37012C29.7054 2.2627 29.7314 2.19434 29.7412 2.16504C29.764 2.08366 29.7949 2.00553 29.834 1.93066C29.873 1.85254 29.9186 1.78581 29.9707 1.73047C30.026 1.67188 30.0895 1.6263 30.1611 1.59375C30.2327 1.55794 30.3141 1.54004 30.4053 1.54004C30.529 1.54004 30.6315 1.56771 30.7129 1.62305C30.7943 1.67513 30.835 1.77767 30.835 1.93066C30.835 1.99251 30.8268 2.05599 30.8105 2.12109C30.7943 2.1862 30.7747 2.24967 30.752 2.31152C30.7324 2.37337 30.7096 2.43522 30.6836 2.49707C30.6608 2.55566 30.6396 2.611 30.6201 2.66309C30.4574 2.98861 30.2865 3.34342 30.1074 3.72754C29.9284 4.1084 29.751 4.49251 29.5752 4.87988C29.3994 5.26725 29.2318 5.64486 29.0723 6.0127C28.9128 6.38053 28.7728 6.71257 28.6523 7.00879ZM28.5059 5.09961C28.3105 5.10612 28.1055 5.14844 27.8906 5.22656C27.6432 5.3112 27.417 5.43815 27.2119 5.60742C27.0068 5.77344 26.8327 5.97852 26.6895 6.22266C26.5495 6.4668 26.4697 6.74674 26.4502 7.0625C26.4502 7.19271 26.5055 7.25781 26.6162 7.25781C26.7529 7.25781 26.8831 7.23014 27.0068 7.1748C27.1305 7.11621 27.2477 7.03971 27.3584 6.94531C27.4723 6.84766 27.5781 6.73698 27.6758 6.61328C27.7734 6.48958 27.863 6.361 27.9443 6.22754C28.029 6.09408 28.1038 5.96224 28.1689 5.83203C28.2373 5.69857 28.2959 5.57487 28.3447 5.46094C28.361 5.42513 28.3838 5.37467 28.4131 5.30957C28.4391 5.24772 28.4701 5.17773 28.5059 5.09961Z" fill="black"/>
</svg>
